Coordinates
version=1
nRows=9
nColumns=36
inDegrees=yes

Units are S.I. units (second, meters, Newtons, ...)
If the header above contains a line with 'inDegrees', this indicates whether rotational values are in degrees (yes) or radians (no).

endheader
time	pelvis_tilt	pelvis_list	pelvis_rotation	pelvis_tx	pelvis_ty	pelvis_tz	hip_flexion_r	hip_adduction_r	hip_rotation_r	knee_angle_r	knee_angle_r_beta	ankle_angle_r	subtalar_angle_r	mtp_angle_r	hip_flexion_l	hip_adduction_l	hip_rotation_l	knee_angle_l	knee_angle_l_beta	ankle_angle_l	subtalar_angle_l	mtp_angle_l	lumbar_extension	lumbar_bending	lumbar_rotation	arm_flex_r	arm_add_r	arm_rot_r	elbow_flex_r	pro_sup_r	arm_flex_l	arm_add_l	arm_rot_l	elbow_flex_l	pro_sup_l
      0.96000000	     -3.04987220	      1.90341573	      4.63138066	      1.12235981	      0.90021197	     -0.26236807	     33.32739455	     -2.84135921	      1.00364820	     24.52924790	      0.42811614	      3.68583996	     -2.61999608	     -7.09756040	     -5.68973510	      8.37417039	      8.86002997	      5.80082888	      0.10124356	     15.43331272	     -2.08085236	     -7.09756040	     -8.12078898	     -1.90679098	    -11.56429201	     -8.33303284	    -13.57015936	      3.50285778	     39.86365617	    106.14627036	      1.63841794	    -19.69331159	     -0.51669951	     58.15172437	    105.95075041
      0.97000000	     -3.19935577	      1.98867647	      4.70306502	      1.13379225	      0.89827784	     -0.26216596	     33.16734184	     -2.76869030	      1.88700164	     21.26586609	      0.37115938	      4.29076988	     -2.74950859	     -7.10294030	     -6.48860365	      8.39402209	      8.72948325	      5.60306712	      0.09779197	     15.92933837	     -1.83830374	     -7.10294030	     -7.90413631	     -1.98520868	    -11.78675696	     -8.66620203	    -13.50964366	      2.98940758	     39.41108921	    106.07541151	      1.75818124	    -19.97001231	     -0.25290457	     58.79253512	    105.96997986
      0.98000000	     -3.36616460	      2.04136082	      4.71390961	      1.14533569	      0.89627532	     -0.26182509	     32.94609969	     -2.57890407	      3.07990963	     18.13527854	      0.31652032	      3.96950731	     -4.61606959	     -7.12922172	     -7.14510048	      8.34909427	      8.07616405	      5.63811391	      0.09840365	     16.77992100	     -0.68636346	     -7.12922172	     -7.63041343	     -2.01640944	    -11.72557318	     -9.19038259	    -13.32288190	      1.76175177	     39.17297037	    106.04827141	      2.08218000	    -20.17369197	      0.21846293	     59.23108190	    105.74541181
      0.99000000	     -3.66139620	      2.08403387	      4.81697883	      1.15694265	      0.89408640	     -0.26167738	     33.02664172	     -2.65922125	      3.03846554	     15.66631540	      0.27342879	      4.58519246	     -4.56640041	     -7.13245005	     -7.61332895	      8.34859423	      8.05899302	      5.80065367	      0.10124051	     17.02889179	     -0.68390715	     -7.13245005	     -7.19885051	     -2.03897096	    -11.90498759	     -9.53011700	    -13.34849176	      1.52214378	     38.76810423	    106.01837843	      2.19687199	    -20.28471885	      0.38178772	     59.61377811	    105.76725726
      1.00000000	     -3.73302516	      2.07487246	      4.89375952	      1.16871919	      0.89225515	     -0.26142105	     32.80273595	     -2.63247061	      2.93710770	     13.54175731	      0.23634825	      5.01145680	     -4.96478739	     -7.13818876	     -8.30307352	      8.25901037	      7.96462742	      6.01005606	      0.10489527	     17.50111442	     -0.59940236	     -7.13818876	     -7.04253549	     -1.95694661	    -12.09423856	     -9.70436346	    -13.28999212	      1.03261839	     38.22004243	    105.96618893	      2.31076391	    -20.45187468	      0.58052350	     59.92485539	    105.76461878
      1.01000000	     -3.94866222	      2.05920614	      4.96092396	      1.18061573	      0.89020584	     -0.26104807	     32.87245334	     -2.60575652	      2.39819391	     12.16537591	      0.21232586	      5.41103010	     -5.39791723	     -7.14064894	     -8.76224377	      8.16715889	      7.85284215	      6.33922652	      0.11064037	     17.65652847	     -0.59174313	     -7.14064894	     -6.69496076	     -1.91553380	    -12.16579346	    -10.02599694	    -13.31884485	      0.79537719	     37.85751626	    105.93315560	      2.41947349	    -20.45832318	      0.64439746	     60.18515256	    105.77546499
      1.02000000	     -4.04449088	      1.95300745	      5.03791065	      1.19272934	      0.88842534	     -0.26061399	     32.76301714	     -2.44580197	      1.77152334	     11.27220887	      0.19673716	      5.76647408	     -5.98407019	     -7.14285381	     -9.27744774	      7.95389672	      7.75546025	      6.81879555	      0.11901043	     17.86335620	     -0.63258202	     -7.14285381	     -6.48867890	     -1.71175319	    -12.26147736	    -10.25026508	    -13.32090155	      0.52506462	     37.45816492	    105.89001542	      2.49512332	    -20.46102574	      0.70117909	     60.36669645	    105.78201115
      1.03000000	     -3.95571628	      1.66419124	      5.15639675	      1.20499993	      0.88701751	     -0.26012475	     32.40796820	     -2.02552572	      1.32571006	     10.88084274	      0.18990653	      5.26860009	     -7.56202725	     -7.15481576	     -9.88561819	      7.48059698	      7.59817187	      7.52808672	      0.13138990	     18.64835946	     -0.11371083	     -7.15481576	     -6.45333739	     -1.27209756	    -12.39988304	    -10.28396273	    -13.13007423	     -0.45405451	     36.86635221	    105.79931359	      2.53756652	    -20.40415609	      0.80033760	     60.41905825	    105.72069493
      1.04000000	     -3.93169773	      1.46164956	      5.14675856	      1.21741611	      0.88552834	     -0.25944791	     32.27831586	     -1.63504442	      0.74615031	     11.25003861	      0.19635021	      5.58644676	     -8.33377633	     -7.15748430	    -10.38716713	      7.13819025	      7.38821772	      8.25803941	      0.14412998	     18.60348118	     -0.21949426	     -7.15748430	     -6.39570717	     -0.92860049	    -12.38948591	    -10.47947557	    -13.23115446	     -0.58671438	     36.68252448	    105.78894984	      2.56020456	    -20.33216007	      0.77775187	     60.45605511	    105.70820343
